# Blender v2.59 (sub 0) OBJ File: ''
# www.blender.org
v 80.305763 -5.799498 9.335552
v 80.305763 -5.799495 -18.840132
v 52.130077 -5.799496 -4.752294
v 52.130085 -5.799495 -18.840137
v 52.130077 -5.799498 9.335549
v 52.130077 22.376186 -4.752289
v 80.305771 22.376190 -18.840122
v 80.305756 22.376188 9.335564
v 52.130074 22.376188 9.335550
v 52.130077 22.376190 -18.840130
v 52.130074 8.288344 9.335550
v 52.130085 8.288347 -18.840134
v 52.130077 8.288346 -4.752292
v 12.684122 -5.799496 -4.752290
v -15.491558 -5.799495 -18.840137
v -15.491565 -5.799498 9.335549
v 12.684122 -5.799498 9.335552
v 12.684122 -5.799495 -18.840132
v 12.684120 22.376186 -4.752279
v -15.491568 22.376188 9.335550
v -15.491562 22.376190 -18.840130
v 12.684129 22.376190 -18.840122
v 12.684113 22.376188 9.335564
v 12.684117 8.288344 9.335557
v 12.684126 8.288347 -18.840126
v 12.684120 8.288346 -4.752285
vt 1.000000 0.000000
vt 0.000000 0.000000
vt 0.500000 1.000000
vt 0.000000 1.000000
vt 1.000000 1.000000
vt 1.000000 0.500000
vt 0.500000 0.500000
vt 0.000000 0.500000
vt 0.500000 0.000000
vn 0.000000 1.000000 0.000000
vn 0.000000 -1.000000 -0.000000
vn 0.000000 0.000000 -1.000000
vn -0.000000 -0.000000 1.000000
vn 1.000000 0.000001 0.000001
vn 1.000000 0.000000 0.000000
vn 1.000000 -0.000000 0.000001
vn -1.000000 0.000000 0.000000
vn -1.000000 -0.000000 -0.000001
usemtl paint.jpg
f 1/1/1 2/2/1 3/3/1
f 3/3/1 2/2/1 4/4/1
f 5/5/1 1/1/1 3/3/1
f 6/6/2 7/2/2 8/4/2
f 9/5/2 6/6/2 8/4/2
f 6/6/2 10/1/2 7/2/2
f 8/1/3 1/2/3 11/3/3
f 11/3/3 1/2/3 5/4/3
f 11/3/3 9/5/3 8/1/3
f 12/3/4 2/1/4 7/2/4
f 10/4/4 12/3/4 7/2/4
f 4/5/4 2/1/4 12/3/4
f 13/7/5 12/3/5 10/5/5
f 13/7/6 10/5/6 6/6/6
f 3/8/7 4/4/7 12/3/7
f 3/8/7 12/3/7 13/7/7
f 2/2/8 1/4/8 7/1/8
f 1/4/9 8/5/9 7/1/9
f 11/9/6 13/7/6 6/6/6
f 11/9/6 6/6/6 9/1/6
usemtl wall.jpg
f 14/9/1 15/4/1 16/5/1
f 17/1/1 14/9/1 16/5/1
f 14/9/1 18/2/1 15/4/1
f 19/8/2 20/5/2 21/1/2
f 22/2/2 19/8/2 21/1/2
f 19/8/2 23/4/2 20/5/2
f 24/9/3 16/4/3 20/5/3
f 23/1/3 24/9/3 20/5/3
f 24/9/3 17/2/3 16/4/3
f 25/9/4 21/4/4 15/5/4
f 18/1/4 25/9/4 15/5/4
f 25/9/4 22/2/4 21/4/4
f 14/2/1 17/4/1 3/1/1
f 17/4/1 5/5/1 3/1/1
f 17/2/3 24/4/3 11/5/3
f 17/2/3 11/5/3 5/1/3
f 26/2/4 14/4/4 3/5/4
f 26/2/4 3/5/4 13/1/4
f 25/9/8 26/7/8 22/1/8
f 26/7/9 19/6/9 22/1/9
f 26/7/8 24/3/8 19/6/8
f 24/3/9 23/5/9 19/6/9
f 18/2/8 14/8/8 25/9/8
f 14/8/8 26/7/8 25/9/8
f 16/2/6 15/4/6 21/5/6
f 16/2/6 21/5/6 20/1/6
f 26/4/2 13/5/2 11/1/2
f 26/4/2 11/1/2 24/2/2
spawn 0.0 -1.0 0.0
spawn 0.0 0.0 0.0
